<?xml version="1.0" encoding="utf-8"?>
<!-- Generator: Adobe Illustrator 20.1.0, SVG Export Plug-In . SVG Version: 6.00 Build 0)  -->
<!DOCTYPE svg PUBLIC "-//W3C//DTD SVG 1.1//EN" "http://www.w3.org/Graphics/SVG/1.1/DTD/svg11.dtd">
<svg version="1.1" id="Ebene_1" xmlns="http://www.w3.org/2000/svg" xmlns:xlink="http://www.w3.org/1999/xlink" x="0px" y="0px"
	 viewBox="0 0 1792 1792" style="enable-background:new 0 0 1792 1792;" xml:space="preserve">
<style type="text/css">
	.st0{fill:#FFFFFF;}
</style>
<path class="st0" d="M237.9,1021.6H1722c14.9,0,27.8,5.4,38.6,16.3c10.9,10.9,16.3,23.8,16.3,38.6v384.8h-219.9v-219.9H237.9v219.9
	H18V417c0-14.9,5.4-27.8,16.3-38.6S58.1,362,73,362h109.9c14.9,0,27.8,5.4,38.6,16.3s16.3,23.8,16.3,38.6V1021.6z M732.6,746.8
	c0-60.7-21.5-112.5-64.4-155.5s-94.8-64.4-155.5-64.4c-60.7,0-112.5,21.5-155.5,64.4s-64.4,94.8-64.4,155.5
	c0,60.7,21.5,112.5,64.4,155.5s94.8,64.4,155.5,64.4c60.7,0,112.5-21.5,155.5-64.4S732.6,807.5,732.6,746.8z M1777,966.7v-55
	c0-91-32.2-168.8-96.6-233.2s-142.1-96.6-233.2-96.6H842.5c-14.9,0-27.8,5.4-38.6,16.3c-10.9,10.9-16.3,23.8-16.3,38.6v329.8H1777z"
	/>
</svg>
