<?xml version="1.0" encoding="utf-8"?>
<!-- Generator: Adobe Illustrator 20.1.0, SVG Export Plug-In . SVG Version: 6.00 Build 0)  -->
<!DOCTYPE svg PUBLIC "-//W3C//DTD SVG 1.1//EN" "http://www.w3.org/Graphics/SVG/1.1/DTD/svg11.dtd">
<svg version="1.1"
	 id="svg3001" inkscape:version="0.48.3.1 r9886" sodipodi:docname="film_font_awesome.svg" xmlns:cc="http://creativecommons.org/ns#" xmlns:dc="http://purl.org/dc/elements/1.1/" xmlns:inkscape="http://www.inkscape.org/namespaces/inkscape" xmlns:rdf="http://www.w3.org/1999/02/22-rdf-syntax-ns#" xmlns:sodipodi="http://sodipodi.sourceforge.net/DTD/sodipodi-0.dtd" xmlns:svg="http://www.w3.org/2000/svg"
	 xmlns="http://www.w3.org/2000/svg" xmlns:xlink="http://www.w3.org/1999/xlink" x="0px" y="0px" viewBox="0 0 602 522"
	 style="enable-background:new 0 0 602 522;" xml:space="preserve">
<style type="text/css">
	.st0{fill:#FFFFFF;}
</style>
<sodipodi:namedview  bordercolor="#666666" borderopacity="1" gridtolerance="10" guidetolerance="10" id="namedview3007" inkscape:current-layer="svg3001" inkscape:cx="960" inkscape:cy="896" inkscape:pageopacity="0" inkscape:pageshadow="2" inkscape:window-height="480" inkscape:window-maximized="0" inkscape:window-width="640" inkscape:window-x="0" inkscape:window-y="25" inkscape:zoom="0.13169643" objecttolerance="10" pagecolor="#ffffff" showgrid="false">
	</sodipodi:namedview>
<g id="g3003" transform="matrix(1,0,0,-1,22.779661,1291.5593)">
	<path id="path3005" inkscape:connector-curvature="0" class="st0" d="M101.7,835.9V875c0,5.3-1.9,9.9-5.8,13.7
		c-3.9,3.9-8.4,5.8-13.7,5.8H43.1c-5.3,0-9.9-1.9-13.7-5.8s-5.8-8.4-5.8-13.7v-39.1c0-5.3,1.9-9.9,5.8-13.7s8.4-5.8,13.7-5.8h39.1
		c5.3,0,9.9,1.9,13.7,5.8C99.8,826,101.7,830.6,101.7,835.9z M101.7,953.1v39.1c0,5.3-1.9,9.9-5.8,13.7c-3.9,3.9-8.4,5.8-13.7,5.8
		H43.1c-5.3,0-9.9-1.9-13.7-5.8s-5.8-8.4-5.8-13.7v-39.1c0-5.3,1.9-9.9,5.8-13.7c3.9-3.9,8.4-5.8,13.7-5.8h39.1
		c5.3,0,9.9,1.9,13.7,5.8C99.8,943.2,101.7,947.8,101.7,953.1z M101.7,1070.3v39.1c0,5.3-1.9,9.9-5.8,13.7
		c-3.9,3.9-8.4,5.8-13.7,5.8H43.1c-5.3,0-9.9-1.9-13.7-5.8c-3.9-3.9-5.8-8.4-5.8-13.7v-39.1c0-5.3,1.9-9.9,5.8-13.7
		c3.9-3.9,8.4-5.8,13.7-5.8h39.1c5.3,0,9.9,1.9,13.7,5.8C99.8,1060.5,101.7,1065,101.7,1070.3z M414.3,835.9v156.3
		c0,5.3-1.9,9.9-5.8,13.7s-8.4,5.8-13.7,5.8H160.3c-5.3,0-9.9-1.9-13.7-5.8c-3.9-3.9-5.8-8.4-5.8-13.7V835.9c0-5.3,1.9-9.9,5.8-13.7
		c3.9-3.9,8.4-5.8,13.7-5.8h234.4c5.3,0,9.9,1.9,13.7,5.8S414.3,830.6,414.3,835.9z M101.7,1187.5v39.1c0,5.3-1.9,9.9-5.8,13.7
		c-3.9,3.9-8.4,5.8-13.7,5.8H43.1c-5.3,0-9.9-1.9-13.7-5.8c-3.9-3.9-5.8-8.4-5.8-13.7v-39.1c0-5.3,1.9-9.9,5.8-13.7
		c3.9-3.9,8.4-5.8,13.7-5.8h39.1c5.3,0,9.9,1.9,13.7,5.8C99.8,1177.7,101.7,1182.3,101.7,1187.5z M531.5,835.9V875
		c0,5.3-1.9,9.9-5.8,13.7c-3.9,3.9-8.4,5.8-13.7,5.8h-39.1c-5.3,0-9.9-1.9-13.7-5.8s-5.8-8.4-5.8-13.7v-39.1c0-5.3,1.9-9.9,5.8-13.7
		s8.4-5.8,13.7-5.8H512c5.3,0,9.9,1.9,13.7,5.8C529.6,826,531.5,830.6,531.5,835.9z M414.3,1070.3v156.3c0,5.3-1.9,9.9-5.8,13.7
		c-3.9,3.9-8.4,5.8-13.7,5.8H160.3c-5.3,0-9.9-1.9-13.7-5.8c-3.9-3.9-5.8-8.4-5.8-13.7v-156.3c0-5.3,1.9-9.9,5.8-13.7
		c3.9-3.9,8.4-5.8,13.7-5.8h234.4c5.3,0,9.9,1.9,13.7,5.8C412.4,1060.5,414.3,1065,414.3,1070.3z M531.5,953.1v39.1
		c0,5.3-1.9,9.9-5.8,13.7c-3.9,3.9-8.4,5.8-13.7,5.8h-39.1c-5.3,0-9.9-1.9-13.7-5.8s-5.8-8.4-5.8-13.7v-39.1c0-5.3,1.9-9.9,5.8-13.7
		c3.9-3.9,8.4-5.8,13.7-5.8H512c5.3,0,9.9,1.9,13.7,5.8C529.6,943.2,531.5,947.8,531.5,953.1z M531.5,1070.3v39.1
		c0,5.3-1.9,9.9-5.8,13.7c-3.9,3.9-8.4,5.8-13.7,5.8h-39.1c-5.3,0-9.9-1.9-13.7-5.8c-3.9-3.9-5.8-8.4-5.8-13.7v-39.1
		c0-5.3,1.9-9.9,5.8-13.7c3.9-3.9,8.4-5.8,13.7-5.8H512c5.3,0,9.9,1.9,13.7,5.8C529.6,1060.5,531.5,1065,531.5,1070.3z
		 M531.5,1187.5v39.1c0,5.3-1.9,9.9-5.8,13.7c-3.9,3.9-8.4,5.8-13.7,5.8h-39.1c-5.3,0-9.9-1.9-13.7-5.8c-3.9-3.9-5.8-8.4-5.8-13.7
		v-39.1c0-5.3,1.9-9.9,5.8-13.7c3.9-3.9,8.4-5.8,13.7-5.8H512c5.3,0,9.9,1.9,13.7,5.8C529.6,1177.7,531.5,1182.3,531.5,1187.5z
		 M570.6,1236.4V826.1c0-13.4-4.8-24.9-14.3-34.5s-21.1-14.3-34.5-14.3H33.3c-13.4,0-24.9,4.8-34.5,14.3s-14.3,21.1-14.3,34.5v410.3
		c0,13.4,4.8,24.9,14.3,34.5s21.1,14.3,34.5,14.3h488.4c13.4,0,24.9-4.8,34.5-14.3S570.6,1249.8,570.6,1236.4z"/>
</g>
</svg>
