<?xml version="1.0" encoding="utf-8"?>
<!-- Generator: Adobe Illustrator 20.1.0, SVG Export Plug-In . SVG Version: 6.00 Build 0)  -->
<!DOCTYPE svg PUBLIC "-//W3C//DTD SVG 1.1//EN" "http://www.w3.org/Graphics/SVG/1.1/DTD/svg11.dtd">
<svg version="1.1" id="Ebene_1" xmlns="http://www.w3.org/2000/svg" xmlns:xlink="http://www.w3.org/1999/xlink" x="0px" y="0px"
	 viewBox="0 0 50 50" style="enable-background:new 0 0 50 50;" xml:space="preserve">
<style type="text/css">
	.st0{fill:#FFFFFF;}
</style>
<path class="st0" d="M22,1.9V13h-2V2c0-0.6-0.4-1-1-1s-1,0.4-1,1v11h-2V2c0-1.3-2-1.2-2,0V13h-2V2c0-1.4-2-1.3-2-0.1v14.5
	c0,2.1,2,3.5,4,3.5V46c0,4,6,4,6,0V19.9c2,0,4-1.7,4-3.2V2C24,0.7,22,0.7,22,1.9z M31,5v25h2v16c0,4,7,4,7,0V5C40,0,31,0,31,5z"/>
</svg>
