<?xml version="1.0" encoding="utf-8"?>
<!-- Generator: Adobe Illustrator 20.1.0, SVG Export Plug-In . SVG Version: 6.00 Build 0)  -->
<!DOCTYPE svg PUBLIC "-//W3C//DTD SVG 1.1//EN" "http://www.w3.org/Graphics/SVG/1.1/DTD/svg11.dtd">
<svg version="1.1" id="Ebene_1" xmlns="http://www.w3.org/2000/svg" xmlns:xlink="http://www.w3.org/1999/xlink" x="0px" y="0px"
	 viewBox="0 0 50 50" style="enable-background:new 0 0 50 50;" xml:space="preserve">
<style type="text/css">
	.st0{fill:#FFFFFF;}
</style>
<g>
	<path class="st0" d="M28.1,18.4c-0.5-2.7-1.4-5.8-2.5-8.5l0,0c-2.3-2-7.2-2.9-12.5-1.9C7.8,8.9,3.5,11.3,2,14l0,0
		c-0.2,2.9,0.1,6.2,0.5,8.9c1.9,10.7,9.6,21,16.7,19.8C26.3,41.4,30,29,28.1,18.4z M6.8,23.3c-0.3,0.1-0.7,0.1-1,0
		c-0.6-0.3-0.9-1.1-0.6-1.7c1.2-2.5,4.2-3.6,6.8-2.5c0.6,0.3,0.9,1.1,0.6,1.7c-0.3,0.6-1.1,0.9-1.7,0.6c-1.3-0.6-2.8,0-3.3,1.2
		C7.4,22.9,7.1,23.1,6.8,23.3z M25.2,27.6C22,37.8,14.9,39,8.4,30.6l0,0c0,0,0,0,0,0c-0.4-0.3-0.5-0.8-0.2-1.2
		C8.5,29.1,9,29,9.3,29.2c0.5,0.4,1.1,0.7,1.6,0.9c1.9,0.9,4.1,1.2,6.2,0.8c2.1-0.4,4-1.4,5.5-2.9c0.4-0.4,0.8-0.9,1.2-1.4
		c0.3-0.4,0.8-0.5,1.2-0.2C25.4,26.7,25.5,27.2,25.2,27.6C25.2,27.6,25.2,27.6,25.2,27.6L25.2,27.6z M25.2,19.8
		c-0.5,0.5-1.3,0.5-1.8,0c-1-1-2.6-1-3.5,0c-0.3,0.3-0.6,0.4-0.9,0.4c-0.3,0-0.7-0.1-0.9-0.4c-0.5-0.5-0.5-1.3,0-1.8
		c2-2,5.2-2,7.2,0C25.7,18.5,25.7,19.3,25.2,19.8z M48.8,14L48.8,14c-1.5-2.7-5.8-5.1-11.1-6.1c-4-0.7-7.7-0.4-10.3,0.6L27.6,9
		c1,2.3,1.9,5.1,2.4,7.7c1.2,0.5,2.2,1.3,2.7,2.6c0.3,0.6,0,1.4-0.6,1.7c-0.5,0.2-1.1,0.1-1.5-0.3c0.2,2.4,0.2,4.9-0.1,7.3
		c1.1,0.2,2.3,0.6,3.5,0.8c3,0.5,6.3-0.4,7.9,4.6l0,0c0,0,0,0,0,0c0.3,0.4,0.2,0.9-0.2,1.2c-0.4,0.3-0.9,0.2-1.2-0.2
		c-0.4-0.5-0.8-1-1.2-1.4c-1.5-1.5-4.2-0.8-6.3-1.2c-1.2-0.2-2-0.3-2.8-0.8c-0.3,1.5-0.6,2.4-1.1,3.8c-0.6,1.8-1.4,3.5-2.3,4.8
		c1.4,1.6,3,2.7,4.8,3.1c7.1,1.2,14.8-9.1,16.7-19.8C48.8,20.2,49,16.9,48.8,14z M45.8,22.1c-0.5,0.5-1.3,0.5-1.8,0
		c-1-1-2.6-1-3.6,0c-0.3,0.3-0.6,0.4-0.9,0.4c-0.3,0-0.7-0.1-0.9-0.4c-0.5-0.5-0.5-1.3,0-1.8c2-2,5.2-2,7.2,0
		C46.3,20.8,46.3,21.6,45.8,22.1z"/>
</g>
</svg>
